<svg width="172" height="66" viewBox="0 0 172 66" fill="none" xmlns="http://www.w3.org/2000/svg">
<path d="M165.576 32.5561C165.576 35.4221 163.516 38.2658 159.509 40.9426C155.52 43.6071 149.715 46.026 142.498 48.0653C128.069 52.1419 108.107 54.6699 86.0381 54.6699C63.9687 54.6699 44.007 52.1419 29.5786 48.0653C22.3609 46.026 16.5562 43.6071 12.5675 40.9426C8.56026 38.2658 6.5 35.4221 6.5 32.5561C6.5 29.6902 8.56026 26.8464 12.5675 24.1696C16.5562 21.5052 22.3609 19.0862 29.5786 17.047C44.007 12.9704 63.9687 10.4424 86.0381 10.4424C108.107 10.4424 128.069 12.9704 142.498 17.047C149.715 19.0862 155.52 21.5052 159.509 24.1696C163.516 26.8464 165.576 29.6902 165.576 32.5561Z" stroke="#222222"/>
<path d="M144.229 7.4324L150.978 16.9233L154.075 5.69632L153.144 17.3053L162.733 10.6952L154.558 18.9902L166.152 20.0899L154.558 21.1897L162.733 29.4847L153.144 22.8746L154.075 34.4836L150.978 23.2565L144.229 32.7475L149.073 22.1568L137.802 25.0888L148.321 20.0899L137.802 15.0911L149.073 18.0231L144.229 7.4324Z" fill="#222222"/>
<path d="M11.0821 34.2988L19.6088 42.2316L20.3746 30.6106L21.8074 42.1683L29.8638 33.7584L23.5322 43.5331L35.1096 42.2694L23.9763 45.6873L33.6574 52.161L22.9318 47.623L26.1867 58.805L20.8874 48.4344L16.1932 59.0926L18.7998 47.7419L8.35283 52.8891L17.6457 45.8695L6.3343 43.0973L17.9652 43.6933L11.0821 34.2988Z" fill="#222222"/>
</svg>
